<?xml version="1.0" standalone="no"?><!DOCTYPE svg PUBLIC "-//W3C//DTD SVG 1.1//EN" "http://www.w3.org/Graphics/SVG/1.1/DTD/svg11.dtd"><svg t="1541417490705" class="icon" style="" viewBox="0 0 1025 1024" version="1.1" xmlns="http://www.w3.org/2000/svg" p-id="22633" xmlns:xlink="http://www.w3.org/1999/xlink" width="48.046875" height="48"><defs><style type="text/css"></style></defs><path d="M846.020985 890.415426 456.887183 889.302406C456.887183 889.302406 351.840423 889.302406 313.5303 846.451164L21.028832 562.631247C-7.130556 534.471859-7.130556 488.771288 21.028832 460.589639L313.641602 176.725202C363.927813 123.700963 458.42315 134.385948 458.42315 134.385948L846.020985 133.562314C944.389629 133.562314 1024.10407 213.299015 1024.10407 311.645399L1024.10407 712.332341C1024.10407 810.678724 944.389629 890.415426 846.020985 890.415426ZM957.322913 346.994891C957.322913 222.893241 932.213198 200.343471 806.330717 200.343471L477.722904 201.011282C477.722904 201.011282 397.607776 192.21843 354.979138 235.893307L106.88714 469.671877C83.001746 492.867199 83.001746 530.48725 106.88714 553.704833L354.890096 787.438882C387.345738 822.721593 476.431802 822.721593 476.431802 822.721593L806.330717 823.634269C934.61732 823.634269 957.322913 798.012565 957.322913 676.982848L957.322913 346.994891ZM666.424193 511.632704 786.029245 630.970631C793.931682 638.873068 793.931682 651.69505 786.029245 659.597487L771.715817 673.910915C763.81338 681.813352 750.991398 681.813352 743.088961 673.910915L623.417128 554.528467 503.745295 673.910915C495.842858 681.813352 483.043136 681.813352 475.118439 673.910915L460.805011 659.597487C452.902574 651.69505 452.902574 638.873068 460.805011 630.970631L580.410063 511.654964 460.18172 391.693746C452.279283 383.791309 452.279283 370.969327 460.18172 363.06689L474.495148 348.753462C482.397585 340.851025 495.219567 340.851025 503.122004 348.753462L623.417128 468.759201 743.712252 348.753462C751.614689 340.851025 764.436671 340.851025 772.361369 348.753462L786.652536 363.06689C794.577233 370.969327 794.577233 383.791309 786.652536 391.693746L666.424193 511.632704Z" p-id="22634"></path></svg>