<?xml version="1.0" encoding="utf-8"?>
<svg version="1.1" xmlns:xlink="http://www.w3.org/1999/xlink" width="20px" height="23px" preserveAspectRatio="xMidYMin meet" viewBox="199 1237  18 23" xmlns="http://www.w3.org/2000/svg">
  <path d="M 209 518  A 1 1 0 0 0 208 519 L 208 887  A 3 3 0 0 1 211 890 A 3 3 0 0 1 208 893 L 208 1251  " stroke-width="2" stroke="#0099cc" fill="none" />
  <path d="M 203.410871785284 516.599657149599  L 211.825581633363 522.00268020828  L 212.9061862451 520.319738238665  L 204.491476397021 514.916715179983  L 203.410871785284 516.599657149599  Z M 213 1249  L 203 1249  L 203 1251  L 213 1251  L 213 1249  Z M 212.292893218813 1241.89289321881  L 208 1246.18578643763  L 203.707106781187 1241.89289321881  L 202.292893218813 1243.30710678119  L 207.292893218813 1248.30710678119  L 208 1249.01421356237  L 208.707106781187 1248.30710678119  L 213.707106781187 1243.30710678119  L 212.292893218813 1241.89289321881  Z " fill-rule="nonzero" fill="#0099cc" stroke="none" />
</svg>