<?xml version="1.0" encoding="utf-8"?>
<svg version="1.1" xmlns:xlink="http://www.w3.org/1999/xlink" width="23px" height="11px" xmlns="http://www.w3.org/2000/svg">
  <g transform="matrix(1 0 0 1 -1425 -156 )">
    <path d="M 2.55555555555556 2.2  L 19.1666666666667 2.2  L 19.1666666666667 8.8  L 2.55555555555556 8.8  L 2.55555555555556 2.2  Z M 20.4444444444444 9.625  L 20.4444444444444 7.15  L 21.7222222222222 7.15  L 21.7222222222222 3.85  L 20.4444444444444 3.85  L 20.4444444444444 1.375  C 20.4444444444444 1.29479166666667  20.4144965277778 1.22890625  20.3546006944444 1.17734375  C 20.2947048611111 1.12578125  20.2181712962963 1.1  20.125 1  L 1.59722222222222 1  C 1.50405092592593 1.1  1.42751736111111 1.12578125  1.36762152777778 1.17734375  C 1.30772569444444 1.22890625  1.27777777777778 1.29479166666667  1.27777777777778 1.375  L 1.27777777777778 9.625  C 1.27777777777778 9.70520833333333  1.30772569444444 9.77109375  1.36762152777778 9.82265625  C 1.42751736111111 9.87421875  1.50405092592593 9.9  1.59722222222222 10  L 20.125 10  C 20.2181712962963 9.9  20.2947048611111 9.87421875  20.3546006944444 9.82265625  C 20.4144965277778 9.77109375  20.4444444444444 9.70520833333333  20.4444444444444 9.625  Z M 22.6256510416667 3.072265625  C 22.8752170138889 3.287109375  23 3.54635416666667  23 3.85  L 23 7.15  C 23 7.45364583333333  22.8752170138889 7.712890625  22.6256510416667 7.927734375  C 22.3760850694444 8.142578125  22.0749421296296 8.25  21.7222222222222 8.25  L 21.7222222222222 9.625  C 21.7222222222222 10.003125  21.5658275462963 10.3268229166667  21.2530381944444 10.59609375  C 20.9402488425926 10.8653645833333  20.5642361111111 11  20.125 11  L 1.59722222222222 11  C 1.15798611111111 11  0.78197337962963 10.8653645833333  0.469184027777778 10.59609375  C 0.156394675925926 10.3268229166667  0 10.003125  0 9.625  L 0 1.375  C 0 0.996875  0.156394675925926 0.673177083333333  0.469184027777778 0.40390625  C 0.78197337962963 0.134635416666665  1.15798611111111 0  1.59722222222222 0  L 20.125 0  C 20.5642361111111 0  20.9402488425926 0.134635416666665  21.2530381944444 0.40390625  C 21.5658275462963 0.673177083333333  21.7222222222222 0.996875  21.7222222222222 1.375  L 21.7222222222222 2.75  C 22.0749421296296 2.75  22.3760850694444 2.857421875  22.6256510416667 3.072265625  Z " fill-rule="nonzero" fill="#000000" stroke="none" transform="matrix(1 0 0 1 1425 156 )" />
  </g>
</svg>