<?xml version="1.0" encoding="utf-8"?>
<svg version="1.1" xmlns:xlink="http://www.w3.org/1999/xlink" width="13px" height="10px" xmlns="http://www.w3.org/2000/svg">
  <g transform="matrix(1 0 0 1 -1172 -157 )">
    <path d="M 7.11558044806509 9.47311827956989  C 6.79344874405979 9.82437275985663  6.58825526137127 10  6.5 10  C 6.41174473862873 10  6.20655125594021 9.82437275985663  5.88441955193491 9.47311827956989  C 5.5622878479295 9.12186379928316  5.40122199592679 8.89844683393071  5.40122199592679 8.80286738351255  C 5.40122199592679 8.64994026284349  5.53912084181945 8.52090800477897  5.8149185336049 8.415770609319  C 6.09071622539034 8.31063321385902  6.31907671418867 8.25806451612904  6.5 8.25806451612904  C 6.68092328581133 8.25806451612904  6.90928377460966 8.31063321385902  7.1850814663951 8.415770609319  C 7.46087915818055 8.52090800477897  7.59877800407321 8.64994026284349  7.59877800407321 8.80286738351255  C 7.59877800407321 8.89844683393071  7.4377121520705 9.12186379928316  7.11558044806509 9.47311827956989  Z M 8.90605906313647 7.51971326164875  C 8.57289545145954 7.87813620071685  8.366598778004 8.05734767025089  8.28716904276996 8.05734767025089  C 8.27834351663273 8.05734767025089  8.19008825526146 7.99761051373955  8.02240325865569 7.87813620071685  C 7.85471826205026 7.75866188769415  7.63077053632048 7.63918757467144  7.35056008146648 7.51971326164875  C 7.07034962661237 7.40023894862604  6.78682959945684 7.34050179211469  6.5 7.34050179211469  C 6.21317040054316 7.34050179211469  5.92965037338763 7.40023894862604  5.64943991853352 7.51971326164875  C 5.36922946367952 7.63918757467144  5.14638492871688 7.75866188769415  4.98090631364562 7.87813620071685  C 4.81542769857435 7.99761051373955  4.72606924643583 8.05734767025089  4.71283095723004 8.05734767025089  C 4.633401221996 8.05734767025089  4.42710454854046 7.87813620071685  4.09394093686353 7.51971326164875  C 3.76077732518672 7.16129032258064  3.5941955193482 6.93906810035843  3.5941955193482 6.85304659498208  C 3.5941955193482 6.79091995221027  3.61625933469111 6.73596176821984  3.66038696537669 6.68817204301075  C 4.00458248472501 6.32019115890084  4.43703326544471 6.0310633213859  4.95773930753569 5.82078853046595  C 5.47844534962655 5.61051373954599  5.9925322471147 5.50537634408602  6.5 5.50537634408602  C 7.0074677528853 5.50537634408602  7.52155465037345 5.61051373954599  8.04226069246431 5.82078853046595  C 8.56296673455529 6.0310633213859  8.99541751527499 6.32019115890084  9.33961303462331 6.68817204301075  C 9.38374066530889 6.73596176821984  9.4058044806518 6.79091995221027  9.4058044806518 6.85304659498208  C 9.4058044806518 6.93906810035843  9.23922267481328 7.16129032258064  8.90605906313647 7.51971326164875  Z M 10.7031568228106 5.56989247311829  C 10.372199592668 5.92831541218638  10.1692124915139 6.10752688172043  10.0941955193482 6.10752688172043  C 10.0456551255941 6.10752688172043  9.99490835030542 6.08841099163681  9.94195519348273 6.05017921146954  C 9.34181941615748 5.54838709677419  8.78581126951792 5.17921146953405  8.27393075356417 4.94265232974911  C 7.76205023761042 4.70609318996415  7.17073998642218 4.58781362007169  6.5 4.58781362007169  C 6.12491513917166 4.58781362007169  5.7487270875763 4.64038231780168  5.37143584521391 4.74551971326164  C 4.99414460285129 4.85065710872162  4.66539375424304 4.97729988052569  4.38518329938904 5.12544802867383  C 4.10497284453504 5.27359617682198  3.85454854039381 5.42174432497013  3.63391038696534 5.56989247311829  C 3.41327223353699 5.71804062126643  3.23896809232849 5.84468339307048  3.11099796334008 5.94982078853047  C 2.98302783435167 6.05495818399044  2.9146300067888 6.10752688172043  2.9058044806518 6.10752688172043  C 2.83078750848608 6.10752688172043  2.62780040733196 5.92831541218638  2.29684317718943 5.56989247311829  C 1.96588594704679 5.21146953405018  1.80040733197552 4.98924731182795  1.80040733197552 4.90322580645162  C 1.80040733197552 4.84587813620071  1.82247114731831 4.79330943847073  1.866598778004 4.74551971326164  C 2.44908350305491 4.1146953405018  3.15512559402578 3.62485065710872  3.9847250509165 3.27598566308244  C 4.8143245078071 2.92712066905615  5.65274949083505 2.75268817204301  6.5 2.75268817204301  C 7.34725050916495 2.75268817204301  8.1856754921929 2.92712066905615  9.0152749490835 3.27598566308244  C 9.84487440597422 3.62485065710872  10.5509164969451 4.1146953405018  11.133401221996 4.74551971326164  C 11.1775288526817 4.79330943847073  11.1995926680245 4.84587813620071  11.1995926680245 4.90322580645162  C 11.1995926680245 4.98924731182795  11.0341140529532 5.21146953405018  10.7031568228106 5.56989247311829  Z M 12.5002545824848 3.62724014336918  C 12.1670909708079 3.98566308243727  11.9630006788867 4.16487455197132  11.887983706721 4.16487455197132  C 11.8394433129668 4.16487455197132  11.7909029192125 4.14336917562724  11.7423625254582 4.10035842293907  C 10.9524779361848 3.35005973715651  10.1328071961982 2.78494623655914  9.28335030549897 2.40501792114695  C 8.43389341479974 2.02508960573476  7.50610997963338 1.83512544802868  6.5 1.83512544802868  C 5.49389002036662 1.83512544802868  4.56610658520026 2.02508960573476  3.71664969450103 2.40501792114695  C 2.8671928038018 2.78494623655914  2.04752206381522 3.35005973715651  1.25763747454175 4.10035842293907  C 1.2090970807875 4.14336917562724  1.16055668703325 4.16487455197132  1.112016293279 4.16487455197132  C 1.03699932111329 4.16487455197132  0.832909029192138 3.98566308243727  0.499745417515214 3.62724014336918  C 0.166581805838405 3.26881720430107  0 3.04659498207886  0 2.96057347670251  C 0 2.89844683393071  0.0220638153427899 2.84348864994027  0.0661914460284834 2.79569892473118  C 0.891378139850644 1.9068100358423  1.87321792260695 1.21863799283155  3.0117107942973 0.731182795698928  C 4.15020366598787 0.243727598566309  5.31296673455529 0  6.5 0  C 7.68703326544471 0  8.84979633401213 0.243727598566309  9.9882892057027 0.731182795698928  C 11.126782077393 1.21863799283155  12.1086218601494 1.9068100358423  12.9338085539715 2.79569892473118  C 12.9779361846572 2.84348864994027  13 2.89844683393071  13 2.96057347670251  C 13 3.04659498207886  12.8334181941616 3.26881720430107  12.5002545824848 3.62724014336918  Z " fill-rule="nonzero" fill="#000000" stroke="none" transform="matrix(1 0 0 1 1172 157 )" />
  </g>
</svg>