<?xml version="1.0" encoding="utf-8"?>
<svg version="1.1" xmlns:xlink="http://www.w3.org/1999/xlink" width="40px" height="40px" xmlns="http://www.w3.org/2000/svg">
  <defs>
    <filter x="852px" y="635px" width="40px" height="40px" filterUnits="userSpaceOnUse" id="filter1">
      <feOffset dx="1" dy="1" in="SourceAlpha" result="shadowOffsetInner" />
      <feGaussianBlur stdDeviation="2.5" in="shadowOffsetInner" result="shadowGaussian" />
      <feComposite in2="shadowGaussian" operator="atop" in="SourceAlpha" result="shadowComposite" />
      <feColorMatrix type="matrix" values="0 0 0 0 0  0 0 0 0 0  0 0 0 0 0  0 0 0 0.698039215686274 0  " in="shadowComposite" />
    </filter>
    <g id="widget2">
      <path d="M 871 639  C 879.4 639  886 645.6  886 654  C 886 662.4  879.4 669  871 669  C 862.6 669  856 662.4  856 654  C 856 645.6  862.6 639  871 639  Z " fill-rule="nonzero" fill="#d9001b" stroke="none" />
      <path d="M 871 639.5  C 879.12 639.5  885.5 645.88  885.5 654  C 885.5 662.12  879.12 668.5  871 668.5  C 862.88 668.5  856.5 662.12  856.5 654  C 856.5 645.88  862.88 639.5  871 639.5  Z " stroke-width="1" stroke="#ffffff" fill="none" />
    </g>
  </defs>
  <g transform="matrix(1 0 0 1 -852 -635 )">
    <use xlink:href="#widget2" filter="url(#filter1)" />
    <use xlink:href="#widget2" />
  </g>
</svg>