<?xml version="1.0" encoding="utf-8"?>
<svg version="1.1" xmlns:xlink="http://www.w3.org/1999/xlink" width="157px" height="10px" preserveAspectRatio="xMinYMid meet" viewBox="328 415  157 8" xmlns="http://www.w3.org/2000/svg">
  <path d="M 328 419  L 475 419  A 5 5 0 0 1 480 424 L 480 479  A 5 5 0 0 0 485 484 L 629 484  " stroke-width="2" stroke="#0099cc" fill="none" />
  <path d="M 330 424  L 330 414  L 328 414  L 328 424  L 330 424  Z M 627 479  L 627 489  L 629 489  L 629 479  L 627 479  Z M 619.892893218813 479.707106781187  L 624.185786437627 484  L 619.892893218813 488.292893218813  L 621.307106781187 489.707106781187  L 626.307106781187 484.707106781187  L 627.014213562373 484  L 626.307106781187 483.292893218813  L 621.307106781187 478.292893218813  L 619.892893218813 479.707106781187  Z " fill-rule="nonzero" fill="#0099cc" stroke="none" />
</svg>