<?xml version="1.0" encoding="utf-8"?>
<svg version="1.1" xmlns:xlink="http://www.w3.org/1999/xlink" width="36px" height="10px" preserveAspectRatio="xMinYMid meet" viewBox="1004 480  36 8" xmlns="http://www.w3.org/2000/svg">
  <path d="M 1004 484  L 1030 484  A 5 5 0 0 1 1035 489 L 1035 519  A 5 5 0 0 0 1040 524 L 1067 524  " stroke-width="2" stroke="#0099cc" fill="none" />
  <path d="M 1006 489  L 1006 479  L 1004 479  L 1004 489  L 1006 489  Z M 1065 519  L 1065 529  L 1067 529  L 1067 519  L 1065 519  Z M 1057.89289321881 519.707106781187  L 1062.18578643763 524  L 1057.89289321881 528.292893218813  L 1059.30710678119 529.707106781187  L 1064.30710678119 524.707106781187  L 1065.01421356237 524  L 1064.30710678119 523.292893218813  L 1059.30710678119 518.292893218813  L 1057.89289321881 519.707106781187  Z " fill-rule="nonzero" fill="#0099cc" stroke="none" />
</svg>