<?xml version="1.0" encoding="utf-8"?>
<svg version="1.1" xmlns:xlink="http://www.w3.org/1999/xlink" width="369px" height="10px" preserveAspectRatio="xMinYMid meet" viewBox="385 699  369 8" xmlns="http://www.w3.org/2000/svg">
  <path d="M 754 703  L 395 703  A 5 5 0 0 0 390 708 L 390 885  A 5 5 0 0 1 385 890 L 193 890  A 5 5 0 0 1 188 885 L 188 877  " stroke-width="2" stroke="#0099cc" fill="none" />
  <path d="M 752 698  L 752 708  L 754 708  L 754 698  L 752 698  Z M 183 879  L 193 879  L 193 877  L 183 877  L 183 879  Z M 183.707106781187 886.107106781187  L 188 881.814213562373  L 192.292893218813 886.107106781187  L 193.707106781187 884.692893218813  L 188.707106781187 879.692893218813  L 188 878.985786437627  L 187.292893218813 879.692893218813  L 182.292893218813 884.692893218813  L 183.707106781187 886.107106781187  Z " fill-rule="nonzero" fill="#0099cc" stroke="none" />
</svg>