<?xml version="1.0" encoding="utf-8"?>
<svg version="1.1" xmlns:xlink="http://www.w3.org/1999/xlink" width="300px" height="170px" xmlns="http://www.w3.org/2000/svg">
  <g transform="matrix(1 0 0 1 -37 -383 )">
    <path d="M 37 383  L 337 383  L 337 553  L 37 553  L 37 383  " fill-rule="nonzero" fill="#cccccc" stroke="none" />
    <path d="M 49 395  L 325 395  L 325 541  L 49 541  L 49 395  " fill-rule="nonzero" fill="#ffffff" stroke="none" />
    <path d="M 205.75 434  C 198.61 434  193 428.39  193 421.25  C 193 414.11  198.61 408.5  205.75 408.5  C 212.89 408.5  218.5 414.11  218.5 421.25  C 218.5 428.39  212.89 434  205.75 434  " fill-rule="nonzero" fill="#cccccc" stroke="none" />
    <path d="M 54 537  L 54 461.65  L 120.75 427.4  L 214.2 490.42  L 267.6 447.95  L 321 490.42  L 321 537  L 54 537  " fill-rule="nonzero" fill="#169bd5" stroke="none" />
  </g>
</svg>