<?xml version="1.0" encoding="utf-8"?>
<svg version="1.1" xmlns:xlink="http://www.w3.org/1999/xlink" width="80px" height="80px" xmlns="http://www.w3.org/2000/svg">
  <g transform="matrix(1 0 0 1 -35 -458 )">
    <path d="M 35 458  L 115 458  L 115 538  L 35 538  L 35 458  " fill-rule="nonzero" fill="#cccccc" stroke="none" />
    <path d="M 41 464  L 109 464  L 109 532  L 41 532  L 41 464  " fill-rule="nonzero" fill="#ffffff" stroke="none" />
    <path d="M 82.6 482  C 79.24 482  76.6 479.36  76.6 476  C 76.6 472.64  79.24 470  82.6 470  C 85.96 470  88.6 472.64  88.6 476  C 88.6 479.36  85.96 482  82.6 482  " fill-rule="nonzero" fill="#cccccc" stroke="none" />
    <path d="M 43 530  L 43 494.8  L 59 478.8  L 81.4 491.6  L 94.2 488.4  L 107 491.6  L 107 530  L 43 530  " fill-rule="nonzero" fill="#169bd5" stroke="none" />
  </g>
</svg>