<svg t="1743504395917" class="icon" viewBox="0 0 1024 1024" version="1.1" xmlns="http://www.w3.org/2000/svg" p-id="3622" width="200" height="200"><path d="M209.92 148.672a16 16 0 0 1 21.12-1.28l1.536 1.28 352.512 352.512a16 16 0 0 1 1.28 21.12l-1.28 1.536-352.512 352.448a16 16 0 0 1-21.12 1.344l-1.536-1.28-45.248-45.312a16 16 0 0 1-1.28-21.12l1.28-1.472 295.936-295.936-295.936-295.936a16 16 0 0 1-1.28-21.12l1.28-1.536 45.248-45.248z m244.032 0a16 16 0 0 1 21.12-1.28l1.472 1.28 352.512 352.512a16 16 0 0 1 1.344 21.12l-1.28 1.536-352.576 352.448a16 16 0 0 1-21.12 1.344l-1.472-1.28-45.248-45.312a16 16 0 0 1-1.344-21.12l1.28-1.472 296-295.936-295.936-295.936a16 16 0 0 1-1.344-21.12l1.28-1.536 45.312-45.248z" fill="#cdcdcd" p-id="3623"></path></svg>