<?xml version="1.0" encoding="utf-8"?>
<svg version="1.1" xmlns:xlink="http://www.w3.org/1999/xlink" width="6px" height="4px" xmlns="http://www.w3.org/2000/svg">
  <g transform="matrix(1 0 0 1 -343 -169 )">
    <path d="M 6 0.886956521739131  C 6 0.955233494363929  5.97642679900744 1.01384863123994  5.92928039702233 1.06280193236715  L 3.16749379652605 3.92657004830918  C 3.12034739454094 3.97552334943639  3.06451612903226 4  3 4  C 2.93548387096774 4  2.87965260545906 3.97552334943639  2.83250620347395 3.92657004830918  L 0.0707196029776675 1.06280193236715  C 0.0235732009925559 1.01384863123994  0 0.955233494363929  0 0.886956521739131  C 0 0.818679549114331  0.0235732009925559 0.760064412238325  0.0707196029776675 0.711111111111111  L 0.688585607940447 0.0734299516908212  C 0.735732009925558 0.0244766505636069  0.791563275434243 0  0.856079404466501 0  C 0.920595533498759 0  0.976426799007444 0.0244766505636069  1.02357320099256 0.0734299516908212  L 3 2.1256038647343  L 4.97642679900744 0.0734299516908212  C 5.02357320099256 0.0244766505636069  5.07940446650124 0  5.1439205955335 0  C 5.20843672456576 0  5.26426799007444 0.0244766505636069  5.31141439205955 0.0734299516908212  L 5.92928039702233 0.711111111111111  C 5.97642679900744 0.760064412238325  6 0.818679549114331  6 0.886956521739131  Z " fill-rule="nonzero" fill="#1373cc" stroke="none" transform="matrix(1 0 0 1 343 169 )" />
  </g>
</svg>