<?xml version="1.0" encoding="utf-8"?>
<svg version="1.1" xmlns:xlink="http://www.w3.org/1999/xlink" width="23px" height="20px" preserveAspectRatio="xMinYMid meet" viewBox="366 389  23 18" xmlns="http://www.w3.org/2000/svg">
  <path d="M 473 174  L 429 174  A 5 5 0 0 0 424 179 L 424 393  A 5 5 0 0 1 419 398 L 375 398  " stroke-width="2" stroke="#0099cc" fill="none" />
  <path d="M 471 169  L 471 179  L 473 179  L 473 169  L 471 169  Z M 377 403  L 377 393  L 375 393  L 375 403  L 377 403  Z M 384.107106781187 402.292893218813  L 379.814213562373 398  L 384.107106781187 393.707106781187  L 382.692893218813 392.292893218813  L 377.692893218813 397.292893218813  L 376.985786437627 398  L 377.692893218813 398.707106781187  L 382.692893218813 403.707106781187  L 384.107106781187 402.292893218813  Z " fill-rule="nonzero" fill="#0099cc" stroke="none" />
</svg>