<?xml version="1.0" encoding="utf-8"?>
<svg version="1.1" xmlns:xlink="http://www.w3.org/1999/xlink" width="19px" height="15px" xmlns="http://www.w3.org/2000/svg">
  <g transform="matrix(1 0 0 1 -1198 -17 )">
    <path d="M 13.308614186845 15  C 13.308614186845 15  5.69138609465444 15  5.69138609465444 15  C 4.90382131619704 15  4.2762306333968 14.393468118309  4.27623063318556 13.658631415156  C 4.27623063318556 13.658631415156  4.27623063318556 5.96034214606082  4.27623063318556 5.96034214606082  C 4.27623063318556 5.96034214606082  3.52558295379096 6.67185069980244  3.52558295379096 6.67185069980244  C 3.39022025736817 6.80015552106415  3.21794046230506 6.87013996889767  3.02104926758509 6.87013996869744  C 2.82415807286512 6.87013996849721  2.65187827759076 6.80015552086393  2.51651558137921 6.67185069980244  C 2.51651558137921 6.67185069980244  0.203044044475755 4.49066874015538  0.203044044475755 4.49066874015538  C -0.0676813481585851 4.23405909783218  -0.0676813481585851 3.80248833582508  0.203044044475755 3.53421461889633  C 0.203044044475755 3.53421461889633  3.72247414829969 0.198289269095229  3.72247414829969 0.198289269095229  C 3.85783684472248 0.0699844478335166  4.03011663978559 0  4.22700783471681 0  C 4.22700783471681 0  5.49449489993447 0  5.49449489993447 0  C 5.60524619691164 0  5.6913860944432 0.0583203732279684  5.74060889333443 0.151632970272581  C 6.42972807464309 1.50466562972208  7.9187177338151 2.37947122854206  9.50615299055834 2.37947122854206  C 11.0935882473016 2.37947122854206  12.5702722068564 1.50466562972208  13.2716970877822 0.151632970272581  C 13.3209198864622 0.0583203730277412  13.4193654838222 0  13.5178110811822 0  C 13.5178110811822 0  14.7852981463999 0  14.7852981463999 0  C 14.9698836412914 0  15.1544691363942 0.0699844478335166  15.2775261329886 0.198289269095229  C 15.2775261329886 0.198289269095229  18.7969562370237 3.53421461889633  18.7969562370237 3.53421461889633  C 19.0676812543254 3.80139793542896  19.0676812543254 4.22348542362275  18.7969562370237 4.49066874015538  C 18.7969562370237 4.49066874015538  16.4834847001203 6.68351477440799  16.4834847001203 6.68351477440799  C 16.3481220036975 6.8118195956697  16.1758422086344 6.88180404350322  15.9789510139144 6.88180404350322  C 15.7820598191944 6.88180404350322  15.6097800239201 6.8118195956697  15.4744173277085 6.68351477440799  C 15.4744173277085 6.68351477440799  14.7237696481027 5.97200622086659  14.7237696481027 5.97200622086659  C 14.7237696481027 5.97200622086659  14.7237696481027 13.658631415156  14.7237696481027 13.658631415156  C 14.7237696481027 14.4051321927143  14.0838732656853 14.9999999997998  13.308614186845 15  Z " fill-rule="nonzero" fill="#ffffff" stroke="none" transform="matrix(1 0 0 1 1198 17 )" />
  </g>
</svg>