<?xml version="1.0" encoding="utf-8"?>
<svg version="1.1" xmlns:xlink="http://www.w3.org/1999/xlink" width="10px" height="10px" xmlns="http://www.w3.org/2000/svg">
  <g transform="matrix(1 0 0 1 -440 -55 )">
    <path d="M 1.30644972164896 0.6048523061433  C 1.30644972164896 0.6048523061433  3.10387891582627 2.40105090915097  4.99975879872255 4.29563279739216  C 4.76568589498328 4.52986606649858  4.5299071794422 4.76580631607317  4.29563279739216 5.00024120127739  C 2.41608455954486 3.12197977654739  0.646446609406723 1.35355339059328  0.646446609406723 1.35355339059328  C 0.451184463531092 1.15829124471765  0.451184463531092 0.841708755282355  0.646446609406723 0.646446609406723  C 0.826688590214985 0.466204628598462  1.11030411819837 0.452339860843949  1.30644972164896 0.6048523061433  Z M 5.00024120127745 5.70436720260784  C 5.23431410501672 5.47013393350142  5.4700928205578 5.23419368392683  5.70436720260784 4.99975879872255  C 7.58391544045509 6.87802022345261  9.35355339059328 8.64644660940672  9.35355339059328 8.64644660940672  C 9.54881553646891 8.84170875528235  9.54881553646891 9.15829124471765  9.35355339059328 9.35355339059328  C 9.17331140978501 9.53379537140154  8.88969588180163 9.54766013915605  8.69355027835104 9.3951476938567  C 8.69355027835104 9.3951476938567  6.89612108417373 7.59894909084903  5.00024120127745 5.70436720260784  Z M 5.70436720260784 4.99975879872255  C 5.47013393350142 4.76568589498328  5.23419368392683 4.5299071794422  4.99975879872261 4.29563279739216  C 6.87802022345261 2.41608455954486  8.64644660940672 0.646446609406723  8.64644660940672 0.646446609406723  C 8.84170875528235 0.451184463531092  9.15829124471765 0.451184463531092  9.35355339059328 0.646446609406723  C 9.53379537140154 0.826688590214985  9.54766013915605 1.11030411819837  9.3951476938567 1.30644972164896  C 9.3951476938567 1.30644972164896  7.59894909084903 3.10387891582627  5.70436720260784 4.99975879872255  Z M 0.6048523061433 8.69355027835104  C 0.6048523061433 8.69355027835104  2.40105090915097 6.89612108417373  4.29563279739216 5.00024120127745  C 4.52986606649858 5.23431410501672  4.76580631607317 5.4700928205578  5.00024120127745 5.70436720260784  C 3.12197977654739 7.58391544045509  1.35355339059328 9.35355339059328  1.35355339059328 9.35355339059328  C 1.15829124471765 9.54881553646891  0.841708755282355 9.54881553646891  0.646446609406723 9.35355339059328  C 0.466204628598462 9.17331140978501  0.452339860843949 8.88969588180163  0.6048523061433 8.69355027835104  Z " fill-rule="nonzero" fill="#ffffff" stroke="none" transform="matrix(1 0 0 1 440 55 )" />
  </g>
</svg>