<?xml version="1.0" encoding="utf-8"?>
<svg version="1.1" xmlns:xlink="http://www.w3.org/1999/xlink" width="16px" height="12px" xmlns="http://www.w3.org/2000/svg">
  <g transform="matrix(1 0 0 1 -24 -61 )">
    <path d="M 15.3333333333334 10  C 15.3333333333334 10  15.3333333333334 1.33333333333334  15.3333333333334 1.33333333333334  C 15.3333333333334 0.59695366689229  14.7363796664411 0  14 0  C 14 0  2.00000000000011 0  2.00000000000011 0  C 1.26362033355906 0  0.666666666666742 0.596953666892261  0.666666666666742 1.33333333333334  C 0.666666666666742 1.33333333333334  0.666666666666742 10  0.666666666666742 10  C 0.666666666666742 10.7363796664411  1.26362033355906 11.3333333333333  2.00000000000011 11.3333333333333  C 2.00000000000011 11.3333333333333  14 11.3333333333333  14 11.3333333333333  C 14.7363796664411 11.3333333333333  15.3333333333334 10.7363796664411  15.3333333333334 10  Z M 14 10  L 2 10  L 2 1.33333333333331  L 14 1.33333333333331  L 14 10  Z " fill-rule="nonzero" fill="#333333" stroke="none" transform="matrix(1 0 0 1 24 61 )" />
  </g>
</svg>