<?xml version="1.0" encoding="utf-8"?>
<svg version="1.1" xmlns:xlink="http://www.w3.org/1999/xlink" width="1px" height="3px" xmlns="http://www.w3.org/2000/svg">
  <g transform="matrix(1 0 0 1 -29 -67 )">
    <path d="M 0 0.75  C 0 0.335786437626905  0.223857625084603 0  0.5 0  C 0.756417919564297 0  0.96775358034592 0.289530142647689  0.996636134337354 0.662534155931792  C 0.996636134337354 0.662534155931792  1 0.75  1 0.75  C 1 0.75  1 2.25  1 2.25  C 1 2.66421356237309  0.776142374915397 3  0.5 3  C 0.243582080435703 3  0.0322464196540797 2.71046985735231  0.00336386566264535 2.33746584406821  C 0.00336386566264535 2.33746584406821  0 2.25  0 2.25  C 0 2.25  0 0.75  0 0.75  Z " fill-rule="nonzero" fill="#333333" stroke="none" transform="matrix(1 0 0 1 29 67 )" />
  </g>
</svg>