<?xml version="1.0" encoding="utf-8"?>
<svg version="1.1" xmlns:xlink="http://www.w3.org/1999/xlink" width="1px" height="3px" xmlns="http://www.w3.org/2000/svg">
  <g transform="matrix(1 0 0 1 -31 -71 )">
    <path d="M 0 0.6  C 0 0.268629150101524  0.223857625084603 0  0.5 0  C 0.756417919564297 0  0.967753580345921 0.231624114118151  0.996636134337354 0.530027324745436  C 0.996636134337354 0.530027324745436  1 0.6  1 0.6  C 1 0.6  1 2.4  1 2.4  C 1 2.73137084989848  0.776142374915397 3  0.5 3  C 0.243582080435703 3  0.0322464196540802 2.76837588588185  0.0033638656626449 2.46997267525457  C 0.0033638656626449 2.46997267525457  0 2.4  0 2.4  C 0 2.4  0 0.6  0 0.6  Z " fill-rule="nonzero" fill="#333333" stroke="none" transform="matrix(1 0 0 1 31 71 )" />
  </g>
</svg>