<?xml version="1.0" encoding="utf-8"?>
<svg version="1.1" xmlns:xlink="http://www.w3.org/1999/xlink" width="1px" height="4px" xmlns="http://www.w3.org/2000/svg">
  <g transform="matrix(1 0 0 1 -31 -65 )">
    <path d="M 0 0.666666666666667  C 0 0.298476833446138  0.223857625084603 0  0.5 0  C 0.756417919564297 0  0.967753580345921 0.257360126797946  0.996636134337354 0.588919249717151  C 0.996636134337354 0.588919249717151  1 0.666666666666667  1 0.666666666666667  C 1 0.666666666666667  1 3.33333333333333  1 3.33333333333333  C 1 3.70152316655386  0.776142374915397 4  0.5 4  C 0.243582080435703 4  0.0322464196540802 3.74263987320206  0.0033638656626449 3.41108075028285  C 0.0033638656626449 3.41108075028285  0 3.33333333333333  0 3.33333333333333  C 0 3.33333333333333  0 0.666666666666667  0 0.666666666666667  Z " fill-rule="nonzero" fill="#333333" stroke="none" transform="matrix(1 0 0 1 31 65 )" />
  </g>
</svg>