<?xml version="1.0" encoding="utf-8"?>
<svg version="1.1" xmlns:xlink="http://www.w3.org/1999/xlink" width="1px" height="5px" xmlns="http://www.w3.org/2000/svg">
  <g transform="matrix(1 0 0 1 -34 -64 )">
    <path d="M 0 0.625  C 0 0.279822031355754  0.223857625084603 0  0.5 0  C 0.756417919564296 0  0.967753580345921 0.241275118873073  0.996636134337354 0.552111796609827  C 0.996636134337354 0.552111796609827  1 0.625  1 0.625  C 1 0.625  1 4.375  1 4.375  C 1 4.72017796864425  0.776142374915397 5  0.5 5  C 0.243582080435703 5  0.0322464196540802 4.75872488112693  0.00336386566264579 4.44788820339017  C 0.00336386566264579 4.44788820339017  0 4.375  0 4.375  C 0 4.375  0 0.625  0 0.625  Z " fill-rule="nonzero" fill="#333333" stroke="none" transform="matrix(1 0 0 1 34 64 )" />
  </g>
</svg>