<?xml version="1.0" encoding="utf-8"?>
<svg version="1.1" xmlns:xlink="http://www.w3.org/1999/xlink" width="9px" height="1px" xmlns="http://www.w3.org/2000/svg">
  <g transform="matrix(1 0 0 1 -27 -74 )">
    <path d="M 0.642857142857143 0  C 0.642857142857143 0  8.35714285714286 0  8.35714285714286 0  C 8.71218305346265 0  9 0.223857625084603  9 0.5  C 9 0.756417919564297  8.75183130630198 0.967753580345921  8.43211358062989 0.996636134337354  C 8.43211358062989 0.996636134337354  8.35714285714286 1  8.35714285714286 1  C 8.35714285714286 1  0.642857142857143 1  0.642857142857143 1  C 0.287816946537347 1  0 0.776142374915397  0 0.5  C 0 0.243582080435704  0.248168693698019 0.032246419654081  0.567886419370109 0.00336386566264579  C 0.567886419370109 0.00336386566264579  0.642857142857143 0  0.642857142857143 0  Z " fill-rule="nonzero" fill="#333333" stroke="none" transform="matrix(1 0 0 1 27 74 )" />
  </g>
</svg>